# This file uses centimeters as units for non-parametric coordinates.

mtllib FKRackLow.mtl
g default
v -20.985285 24.096413 11.276872
v -17.806870 24.096413 11.276872
v -20.985285 27.274828 11.276872
v -17.806870 27.274828 11.276872
v -20.985285 27.274828 3.508485
v -17.806870 27.274828 3.508485
v -20.985285 24.096413 3.508485
v -17.806870 24.096413 3.508485
v -20.985285 24.096413 14.728539
v -17.806870 24.096413 14.728539
v -17.806870 27.274828 14.728539
v -20.985285 27.274828 14.728539
v -20.985285 30.441988 11.276872
v -17.806870 30.441988 11.276872
v -20.985285 30.441988 14.728539
v -17.806870 30.441988 14.728539
v -56.190231 17.638828 3.508485
v 56.190231 17.638828 3.508485
v -56.190231 56.361172 3.508485
v 56.190231 56.361172 3.508485
v -56.190231 56.361172 -1.571423
v 56.190231 56.361172 -1.571423
v -56.190231 17.638828 -1.571423
v 56.190231 17.638828 -1.571423
v 35.264534 73.350021 3.508485
v 35.264534 73.350021 -1.571423
v 35.264534 0.649979 -1.571423
v 35.264534 0.649979 3.508485
v -35.264545 73.350021 3.508485
v -35.264545 73.350021 -1.571423
v -35.264545 0.649979 -1.571423
v -35.264545 0.649979 3.508485
v -52.634281 19.332186 3.508484
v -34.002800 4.205925 3.508484
v -34.002800 69.794075 3.508484
v -52.634281 54.667816 3.508484
v 34.002796 4.205925 3.508484
v 34.002796 69.794075 3.508484
v 52.634281 19.332188 3.508484
v 52.634281 54.667812 3.508484
v -52.634281 19.332186 0.199169
v -34.002800 4.205925 0.199169
v -34.002800 69.794075 0.199169
v -52.634281 54.667816 0.199169
v 34.002796 4.205925 0.199169
v 34.002796 69.794075 0.199169
v 52.634281 19.332188 0.199169
v 52.634281 54.667812 0.199169
v 17.806873 24.096413 11.276872
v 20.985289 24.096413 11.276872
v 17.806873 27.274828 11.276872
v 20.985289 27.274828 11.276872
v 17.806873 27.274828 3.508485
v 20.985289 27.274828 3.508485
v 17.806873 24.096413 3.508485
v 20.985289 24.096413 3.508485
v 17.806873 24.096413 14.728539
v 20.985289 24.096413 14.728539
v 20.985289 27.274828 14.728539
v 17.806873 27.274828 14.728539
v 17.806873 30.441988 11.276872
v 20.985289 30.441988 11.276872
v 17.806873 30.441988 14.728539
v 20.985289 30.441988 14.728539
vt 0.889178 0.074120
vt 0.889178 0.035225
vt 0.905092 0.035225
vt 0.905092 0.074120
vt 0.905092 0.091402
vt 0.889178 0.091402
vt 0.920949 0.074120
vt 0.920949 0.091402
vt 0.359604 0.089444
vt 0.359604 0.050549
vt 0.375518 0.050549
vt 0.375518 0.089444
vt 0.359604 0.033267
vt 0.375518 0.033267
vt 0.391375 0.033267
vt 0.391375 0.050549
vt 0.969298 0.200609
vt 0.998008 0.200609
vt 0.998008 0.419456
vt 0.969298 0.419456
vt 0.969298 0.104593
vt 0.998008 0.104593
vt 0.969298 0.515472
vt 0.998008 0.515472
vt 0.934124 0.155662
vt 0.962834 0.155662
vt 0.962834 0.374509
vt 0.934124 0.374509
vt 0.934124 0.059647
vt 0.962834 0.059647
vt 0.962834 0.470525
vt 0.934124 0.470525
vt 0.750435 0.374799
vt 0.750435 0.175375
vt 0.769111 0.175375
vt 0.769111 0.374799
vt 0.750435 0.090007
vt 0.769111 0.090007
vt 0.750435 0.460167
vt 0.769111 0.460167
vt 0.794515 0.175374
vt 0.794515 0.374798
vt 0.775838 0.374798
vt 0.775838 0.175374
vt 0.794515 0.460166
vt 0.775838 0.460166
vt 0.794515 0.090006
vt 0.775838 0.090006
vt 0.867683 0.095621
vt 0.867683 0.056726
vt 0.883597 0.056726
vt 0.883597 0.095621
vt 0.883597 0.112902
vt 0.867683 0.112902
vt 0.899454 0.095621
vt 0.899454 0.112902
vt 0.809059 0.103127
vt 0.809059 0.064232
vt 0.824973 0.064232
vt 0.824973 0.103127
vt 0.809059 0.046950
vt 0.824973 0.046950
vt 0.840830 0.046950
vt 0.840830 0.064232
vt 0.758251 0.044979
vt 0.774164 0.044979
vt 0.774164 0.083873
vt 0.758251 0.083873
vt 0.975160 0.043027
vt 0.991074 0.043027
vt 0.991074 0.081921
vt 0.975160 0.081921
vt 0.991074 0.099203
vt 0.975160 0.099203
vt 0.354021 0.066122
vt 0.338109 0.066122
vt 0.338109 0.048842
vt 0.354021 0.048842
vt 0.801242 0.460673
vt 0.801242 0.107539
vt 0.826677 0.107539
vt 0.826677 0.460673
vt 0.859897 0.460671
vt 0.834462 0.460671
vt 0.834462 0.107538
vt 0.859897 0.107538
vt 0.867683 0.459762
vt 0.867683 0.119264
vt 0.884252 0.119264
vt 0.884252 0.459762
vt 0.907702 0.119263
vt 0.907702 0.459761
vt 0.891132 0.459761
vt 0.891132 0.119263
vt 0.783655 0.044979
vt 0.799568 0.044979
vt 0.799568 0.083873
vt 0.783655 0.083873
vt 0.726985 0.031303
vt 0.742898 0.031303
vt 0.742898 0.070197
vt 0.726985 0.070197
vt 0.742898 0.087479
vt 0.726985 0.087479
vt 0.719447 0.058306
vt 0.703535 0.058306
vt 0.703535 0.041026
vt 0.719447 0.041026
vt 0.001992 0.043014
vt 0.017905 0.043014
vt 0.017905 0.058927
vt 0.001992 0.058927
vt 0.017905 0.074784
vt 0.001992 0.074784
vt 0.863997 0.035152
vt 0.863997 0.051063
vt 0.848141 0.051063
vt 0.848141 0.035152
vt 0.744097 0.990272
vt 0.668361 0.896986
vt 0.996757 0.896986
vt 0.921020 0.990272
vt 0.668361 0.556486
vt 0.996757 0.556486
vt 0.744097 0.463199
vt 0.921020 0.463199
vt 0.087054 0.564659
vt 0.001992 0.459885
vt 0.365997 0.459885
vt 0.280935 0.564659
vt 0.001992 0.106750
vt 0.365997 0.106750
vt 0.087054 0.001977
vt 0.280935 0.001977
vt 0.456391 0.564658
vt 0.371329 0.459885
vt 0.389134 0.453567
vt 0.464870 0.546854
vt 0.371329 0.106750
vt 0.389134 0.113068
vt 0.650272 0.564658
vt 0.641793 0.546854
vt 0.456391 0.001977
vt 0.464870 0.019781
vt 0.735334 0.459885
vt 0.717529 0.453567
vt 0.650272 0.001977
vt 0.641793 0.019781
vt 0.735334 0.106750
vt 0.717529 0.113068
vt 0.910674 0.037156
vt 0.926587 0.037156
vt 0.926587 0.053069
vt 0.910674 0.053069
vt 0.926587 0.068925
vt 0.910674 0.068925
vt 0.957796 0.037111
vt 0.957796 0.053023
vt 0.941940 0.053023
vt 0.941940 0.037111
vn 0.000000 0.000000 1.000000
vn 0.000000 0.000000 1.000000
vn 0.000000 0.000000 1.000000
vn 0.000000 0.000000 1.000000
vn 0.000000 1.000000 0.000000
vn 0.000000 1.000000 0.000000
vn 0.000000 1.000000 0.000000
vn 0.000000 1.000000 0.000000
vn 0.000000 -1.000000 0.000000
vn 0.000000 -1.000000 0.000000
vn 0.000000 -1.000000 0.000000
vn 0.000000 -1.000000 0.000000
vn 1.000000 0.000000 0.000000
vn 1.000000 0.000000 0.000000
vn 1.000000 0.000000 0.000000
vn 1.000000 0.000000 0.000000
vn -1.000000 0.000000 0.000000
vn -1.000000 0.000000 0.000000
vn -1.000000 0.000000 0.000000
vn -1.000000 0.000000 0.000000
vn 0.000000 -1.000000 0.000000
vn 0.000000 -1.000000 0.000000
vn 0.000000 -1.000000 0.000000
vn 0.000000 -1.000000 0.000000
vn 1.000000 0.000000 0.000000
vn 1.000000 0.000000 0.000000
vn 1.000000 0.000000 0.000000
vn 1.000000 0.000000 0.000000
vn 0.000000 1.000000 0.000000
vn 0.000000 1.000000 0.000000
vn 0.000000 1.000000 0.000000
vn 0.000000 1.000000 0.000000
vn -1.000000 0.000000 0.000000
vn -1.000000 0.000000 0.000000
vn -1.000000 0.000000 0.000000
vn -1.000000 0.000000 0.000000
vn 0.000000 0.000000 -1.000000
vn 0.000000 0.000000 -1.000000
vn 0.000000 0.000000 -1.000000
vn 0.000000 0.000000 -1.000000
vn -1.000000 0.000000 0.000000
vn -1.000000 0.000000 0.000000
vn -1.000000 0.000000 0.000000
vn -1.000000 0.000000 0.000000
vn 0.000000 0.000000 1.000000
vn 0.000000 0.000000 1.000000
vn 0.000000 0.000000 1.000000
vn 0.000000 0.000000 1.000000
vn 1.000000 0.000000 0.000000
vn 1.000000 0.000000 0.000000
vn 1.000000 0.000000 0.000000
vn 1.000000 0.000000 0.000000
vn 0.000000 0.000000 1.000000
vn 0.000000 0.000000 1.000000
vn 0.000000 0.000000 1.000000
vn 0.000000 0.000000 1.000000
vn -0.630296 0.776355 0.000000
vn -0.182638 0.983180 0.000000
vn -0.182638 0.983180 0.000000
vn -0.630296 0.776355 0.000000
vn 0.000000 0.000000 -1.000000
vn 0.000000 0.000000 -1.000000
vn 0.000000 0.000000 -1.000000
vn 0.000000 0.000000 -1.000000
vn -0.630296 -0.776355 0.000000
vn -0.182638 -0.983180 0.000000
vn -0.182638 -0.983180 0.000000
vn -0.630296 -0.776355 0.000000
vn 1.000000 0.000000 0.000000
vn 1.000000 0.000000 0.000000
vn 1.000000 0.000000 0.000000
vn 1.000000 0.000000 0.000000
vn -1.000000 0.000000 0.000000
vn -1.000000 0.000000 0.000000
vn -1.000000 0.000000 0.000000
vn -1.000000 0.000000 0.000000
vn 0.182638 0.983180 0.000000
vn 0.630296 0.776355 0.000000
vn 0.630296 0.776355 0.000000
vn 0.182638 0.983180 0.000000
vn 0.000000 0.000000 -1.000000
vn 0.000000 0.000000 -1.000000
vn 0.000000 0.000000 -1.000000
vn 0.000000 0.000000 -1.000000
vn 0.182638 -0.983180 0.000000
vn 0.182638 -0.983180 0.000000
vn 0.630296 -0.776355 0.000000
vn 0.630296 -0.776355 0.000000
vn 0.000000 0.000000 1.000000
vn 0.000000 0.000000 1.000000
vn 0.000000 0.000000 1.000000
vn 0.000000 0.000000 1.000000
vn 0.000000 0.000000 1.000000
vn 0.000000 0.000000 1.000000
vn 0.000000 0.000000 1.000000
vn 0.000000 0.000000 1.000000
vn 0.000000 -0.000000 1.000000
vn 0.000000 -0.000000 1.000000
vn 0.000000 -0.000000 1.000000
vn 0.000000 -0.000000 1.000000
vn -0.000000 0.000000 1.000000
vn -0.000000 0.000000 1.000000
vn -0.000000 0.000000 1.000000
vn -0.000000 0.000000 1.000000
vn -0.000000 -0.000000 1.000000
vn -0.000000 -0.000000 1.000000
vn -0.000000 -0.000000 1.000000
vn -0.000000 -0.000000 1.000000
vn 0.630296 0.776355 0.000000
vn 0.630296 0.776355 0.000000
vn 0.630296 0.776355 0.000000
vn 0.630296 0.776355 0.000000
vn 0.630296 -0.776355 0.000000
vn 0.630296 -0.776355 0.000000
vn 0.630296 -0.776355 0.000000
vn 0.630296 -0.776355 0.000000
vn 1.000000 0.000000 0.000000
vn 1.000000 0.000000 0.000000
vn 1.000000 0.000000 0.000000
vn 1.000000 0.000000 0.000000
vn -0.630296 0.776355 0.000000
vn -0.630296 0.776355 0.000000
vn -0.630296 0.776355 0.000000
vn -0.630296 0.776355 0.000000
vn -1.000000 0.000000 0.000000
vn -1.000000 0.000000 0.000000
vn -1.000000 0.000000 0.000000
vn -1.000000 0.000000 0.000000
vn -0.630296 -0.776355 0.000000
vn -0.630296 -0.776355 0.000000
vn -0.630296 -0.776355 0.000000
vn -0.630296 -0.776355 0.000000
vn 0.000000 1.000000 0.000000
vn 0.000000 1.000000 0.000000
vn 0.000000 1.000000 0.000000
vn 0.000000 1.000000 0.000000
vn 0.000000 -1.000000 0.000000
vn 0.000000 -1.000000 0.000000
vn 0.000000 -1.000000 0.000000
vn 0.000000 -1.000000 0.000000
vn 0.000000 0.000000 1.000000
vn 0.000000 0.000000 1.000000
vn 0.000000 0.000000 1.000000
vn 0.000000 0.000000 1.000000
vn 0.000000 1.000000 0.000000
vn 0.000000 1.000000 0.000000
vn 0.000000 1.000000 0.000000
vn 0.000000 1.000000 0.000000
vn 0.000000 -1.000000 0.000000
vn 0.000000 -1.000000 0.000000
vn 0.000000 -1.000000 0.000000
vn 0.000000 -1.000000 0.000000
vn 1.000000 0.000000 0.000000
vn 1.000000 0.000000 0.000000
vn 1.000000 0.000000 0.000000
vn 1.000000 0.000000 0.000000
vn -1.000000 0.000000 0.000000
vn -1.000000 0.000000 0.000000
vn -1.000000 0.000000 0.000000
vn -1.000000 0.000000 0.000000
vn 0.000000 -1.000000 0.000000
vn 0.000000 -1.000000 0.000000
vn 0.000000 -1.000000 0.000000
vn 0.000000 -1.000000 0.000000
vn 1.000000 0.000000 0.000000
vn 1.000000 0.000000 0.000000
vn 1.000000 0.000000 0.000000
vn 1.000000 0.000000 0.000000
vn 0.000000 1.000000 0.000000
vn 0.000000 1.000000 0.000000
vn 0.000000 1.000000 0.000000
vn 0.000000 1.000000 0.000000
vn -1.000000 0.000000 0.000000
vn -1.000000 0.000000 0.000000
vn -1.000000 0.000000 0.000000
vn -1.000000 0.000000 0.000000
vn 0.000000 0.000000 -1.000000
vn 0.000000 0.000000 -1.000000
vn 0.000000 0.000000 -1.000000
vn 0.000000 0.000000 -1.000000
vn -1.000000 0.000000 0.000000
vn -1.000000 0.000000 0.000000
vn -1.000000 0.000000 0.000000
vn -1.000000 0.000000 0.000000
vn 0.000000 0.000000 1.000000
vn 0.000000 0.000000 1.000000
vn 0.000000 0.000000 1.000000
vn 0.000000 0.000000 1.000000
vn 1.000000 0.000000 0.000000
vn 1.000000 0.000000 0.000000
vn 1.000000 0.000000 0.000000
vn 1.000000 0.000000 0.000000
s off
g WPRack
usemtl initialShadingGroup
f 9/109/1 10/110/2 11/111/3 12/112/4
f 3/65/5 4/66/6 6/67/7 5/68/8
f 7/69/9 8/70/10 2/71/11 1/72/12
f 2/1/13 8/2/14 6/3/15 4/4/16
f 7/9/17 1/10/18 3/11/19 5/12/20
f 1/72/21 2/71/22 10/73/23 9/74/24
f 2/1/25 4/4/26 11/5/27 10/6/28
f 14/75/29 13/76/30 15/77/31 16/78/32
f 3/11/33 1/10/34 9/13/35 12/14/36
f 4/115/37 3/116/38 13/117/39 14/118/40
f 3/11/41 12/14/42 15/15/43 13/16/44
f 12/112/45 11/111/46 16/113/47 15/114/48
f 11/5/49 4/4/50 14/7/51 16/8/52
s 1
f 41/119/53 42/120/54 43/121/55 44/122/56
s 2
f 19/27/57 29/31/58 30/32/59 21/28/60
s 3
f 21/127/61 30/128/62 31/129/63 23/130/64
s 4
f 23/25/65 31/29/66 32/30/67 17/26/68
s off
f 18/17/69 24/18/70 22/19/71 20/20/72
f 23/25/73 17/26/74 19/27/75 21/28/76
s 2
f 25/23/77 20/20/78 22/19/79 26/24/80
s 3
f 27/132/81 26/131/82 22/133/83 24/134/84
s 4
f 28/21/85 27/22/86 24/18/87 18/17/88
s 1
f 46/124/89 45/123/90 47/125/91 48/126/92
s 2
f 29/79/58 25/80/77 26/81/80 30/82/59
s 3
f 31/129/63 30/128/62 26/131/82 27/132/81
s 4
f 32/83/67 31/84/66 27/85/86 28/86/85
s 1
f 43/121/55 42/120/54 45/123/90 46/124/89
s 5
f 17/135/93 32/136/94 34/137/95 33/138/96
f 29/145/97 19/141/98 36/142/99 35/146/100
f 19/141/98 17/135/93 33/138/96 36/142/99
f 28/139/101 18/143/102 39/144/103 37/140/104
f 18/143/102 20/147/105 40/148/106 39/144/103
f 20/147/105 25/149/107 38/150/108 40/148/106
f 32/136/94 28/139/101 37/140/104 34/137/95
f 25/149/107 29/145/97 35/146/100 38/150/108
s off
f 33/34/109 34/37/110 42/38/111 41/35/112
f 35/39/113 36/33/114 44/36/115 43/40/116
f 36/33/117 33/34/118 41/35/119 44/36/120
f 37/47/121 39/41/122 47/44/123 45/48/124
f 39/41/125 40/42/126 48/43/127 47/44/128
f 40/42/129 38/45/130 46/46/131 48/43/132
f 34/87/133 37/88/134 45/89/135 42/90/136
f 38/91/137 35/92/138 43/93/139 46/94/140
f 57/151/141 58/152/142 59/153/143 60/154/144
f 51/95/145 52/96/146 54/97/147 53/98/148
f 55/99/149 56/100/150 50/101/151 49/102/152
f 50/49/153 56/50/154 54/51/155 52/52/156
f 55/57/157 49/58/158 51/59/159 53/60/160
f 49/102/161 50/101/162 58/103/163 57/104/164
f 50/49/165 52/52/166 59/53/167 58/54/168
f 62/105/169 61/106/170 63/107/171 64/108/172
f 51/59/173 49/58/174 57/61/175 60/62/176
f 52/157/177 51/158/178 61/159/179 62/160/180
f 51/59/181 60/62/182 63/63/183 61/64/184
f 60/154/185 59/153/186 64/155/187 63/156/188
f 59/53/189 52/52/190 62/55/191 64/56/192
